<svg width="800" height="520" viewBox="0 0 800 520" fill="none" xmlns="http://www.w3.org/2000/svg">
  <rect width="800" height="520" rx="32" fill="#111827"/>
  <rect x="72" y="64" width="656" height="392" rx="24" fill="#FFFFFF" fill-opacity="0.08"/>
  <rect x="134" y="142" width="532" height="30" rx="15" fill="#E2E8F0" fill-opacity="0.25"/>
  <rect x="134" y="142" width="360" height="30" rx="15" fill="#34D399"/>
  <rect x="134" y="200" width="532" height="30" rx="15" fill="#E2E8F0" fill-opacity="0.25"/>
  <rect x="134" y="200" width="270" height="30" rx="15" fill="#22D3EE"/>
  <rect x="134" y="258" width="532" height="30" rx="15" fill="#E2E8F0" fill-opacity="0.25"/>
  <rect x="134" y="258" width="438" height="30" rx="15" fill="#A7F3D0"/>
  <g>
    <animateTransform attributeName="transform" type="translate" values="0 0;0 -3;0 0" dur="4s" repeatCount="indefinite"/>
    <circle cx="642" cy="354" r="38" fill="#FCD9C7"/>
    <path d="M610 350C612 326 628 312 642 312C660 312 674 326 674 350V364H610V350Z" fill="#0F172A"/>
    <rect x="596" y="388" width="92" height="70" rx="24" fill="#0891B2"/>
  </g>
</svg>
