<svg width="1200" height="700" viewBox="0 0 1200 700" fill="none" xmlns="http://www.w3.org/2000/svg">
  <defs>
    <linearGradient id="bg" x1="80" y1="70" x2="1100" y2="620" gradientUnits="userSpaceOnUse">
      <stop stop-color="#0F172A"/>
      <stop offset="1" stop-color="#134E4A"/>
    </linearGradient>
  </defs>
  <rect width="1200" height="700" rx="40" fill="url(#bg)"/>
  <rect x="98" y="88" width="1004" height="524" rx="26" fill="#FFFFFF" fill-opacity="0.08"/>

  <g>
    <ellipse cx="360" cy="554" rx="150" ry="24" fill="#0B1220" fill-opacity="0.45"/>
    <rect x="300" y="302" width="122" height="190" rx="34" fill="#1E293B"/>
    <rect x="323" y="488" width="30" height="70" rx="15" fill="#22D3EE"/>
    <rect x="370" y="488" width="30" height="70" rx="15" fill="#22D3EE"/>
    <circle cx="360" cy="248" r="58" fill="#FCD9C7"/>
    <path d="M314 240C317 205 343 186 365 186C395 186 417 211 417 240V262H314V240Z" fill="#0F172A"/>
    <rect x="410" y="322" width="182" height="278" rx="22" fill="#E2E8F0"/>
    <rect x="426" y="348" width="148" height="184" rx="14" fill="#0F172A"/>
    <rect x="442" y="366" width="116" height="12" rx="6" fill="#22D3EE"/>
    <rect x="442" y="390" width="92" height="10" rx="5" fill="#67E8F9"/>
    <rect x="442" y="414" width="106" height="10" rx="5" fill="#34D399"/>
  </g>

  <g>
    <animateTransform attributeName="transform" type="translate" values="0 0; 0 -5; 0 0" dur="5.2s" repeatCount="indefinite"/>
    <circle cx="900" cy="250" r="74" fill="#FCD9C7"/>
    <path d="M844 248C848 206 874 182 902 182C930 182 956 207 956 248V272H844V248Z" fill="#083344"/>
    <rect x="826" y="324" width="146" height="188" rx="38" fill="#0F766E"/>
    <rect x="792" y="356" width="62" height="16" rx="8" fill="#A7F3D0"/>
    <rect x="948" y="356" width="62" height="16" rx="8" fill="#A7F3D0"/>
    <ellipse cx="898" cy="554" rx="132" ry="22" fill="#0B1220" fill-opacity="0.45"/>
  </g>
</svg>
